<svg xmlns="http://www.w3.org/2000/svg" viewBox="0 0 239.14 79.64"><defs><style>.cls-1,.cls-8{fill:#0f1140;}.cls-2{fill:#debf65;}.cls-3,.cls-7{fill:#fafbfc;}.cls-4{fill:#fbfcfc;}.cls-4,.cls-5,.cls-6,.cls-7,.cls-8{stroke:#fff;stroke-miterlimit:10;}.cls-5{fill:#fdfeff;}.cls-6{fill:#fff;}</style></defs><g id="Layer_2" data-name="Layer 2"><g id="CP_LOGO" data-name="CP LOGO"><path class="cls-1" d="M119.57,79.63H.51c-.42,0-.51-.09-.51-.51Q0,39.82,0,.51C0,.09.09,0,.51,0H238.63c.42,0,.51.09.51.51q0,39.32,0,78.62c0,.42-.09.51-.51.51Zm0-4.69H233.46c.86,0,.76.1.76-.77V5.44c0-.83.09-.74-.73-.74H5.65c-.82,0-.73-.09-.73.74V74.17c0,.15,0,.3,0,.44s.08.34.32.33H119.57Z"></path><path class="cls-2" d="M119.57,74.94H5.24c-.24,0-.33-.1-.32-.33s0-.29,0-.44V5.44c0-.83-.09-.74.73-.74H233.49c.82,0,.73-.09.73.74V74.17c0,.87.1.77-.76.77Zm0-69.65H6.2c-.72,0-.72,0-.72.73q0,32.14,0,64.28c0,.52.12.65.66.65q113.42,0,226.83,0c.59,0,.71-.17.71-.72q0-32.11,0-64.22c0-.73,0-.73-.73-.73Z"></path><path class="cls-1" d="M119.59,5.29H232.93c.73,0,.73,0,.73.73q0,32.1,0,64.22c0,.55-.12.72-.71.72q-113.42,0-226.83,0c-.54,0-.66-.13-.66-.65q0-32.14,0-64.28c0-.73,0-.73.72-.73ZM74.87,30.4A13.66,13.66,0,0,0,75.13,33c.7,3.71,2.45,6.77,5.82,8.61a14.65,14.65,0,0,0,11.64,1.14c4.25-1.29,5.4-4.32,5.86-7.44,0-.15.11-.36-.2-.4s-.23.15-.27.3c-.1.43-.2.86-.32,1.28a6.91,6.91,0,0,1-4,4.91,10.16,10.16,0,0,1-8,0,9.38,9.38,0,0,1-5.25-6.14,19,19,0,0,1-.62-8.79A14.57,14.57,0,0,1,83.17,19a7.51,7.51,0,0,1,8.48-2.33,8.55,8.55,0,0,1,4.71,4.82c.43,1,.79,2,1.17,3,.08.22.16.42.45.35s.14-.31.13-.46c-.06-2.58-.12-5.16-.21-7.74,0-.16.14-.42-.18-.48s-.37.14-.47.34a1,1,0,0,1-1.44.62c-.67-.19-1.33-.41-2-.64A14.78,14.78,0,0,0,85.45,16a12.81,12.81,0,0,0-8,5.1A15.82,15.82,0,0,0,74.87,30.4ZM106,28.74v-.67q0-6,0-12.09c0-.4-.06-.54-.5-.48-1.56.22-3.13.39-4.69.6-.16,0-.43-.06-.44.27s.25.24.42.25a2.23,2.23,0,0,1,2,1.74,6.38,6.38,0,0,1,.2,1.68q0,9,0,17.92c0,.43,0,.85,0,1.27-.17,2.12-.61,2.68-2.42,3.08-.17,0-.45-.06-.41.29s.31.18.47.18h7.64c.16,0,.43.16.49-.16s-.25-.31-.43-.35c-1.72-.47-2.28-1.1-2.31-2.84,0-2.18-.06-4.36,0-6.54a8.3,8.3,0,0,1,1.25-4.54,4.16,4.16,0,0,1,4.53-1.56,3.37,3.37,0,0,1,2.53,3.34c.11,3.13.13,6.26,0,9.39-.07,1.59-.55,2.53-2.41,2.79-.17,0-.4,0-.38.28s.26.19.41.19h7.86c.14,0,.31.05.31-.19s-.07-.25-.24-.29A7,7,0,0,1,119,42a2.12,2.12,0,0,1-1.53-2c0-.56-.08-1.13-.08-1.7,0-2.62,0-5.24,0-7.86A4,4,0,0,0,114,26.23C111,25.52,108.2,26,106,28.74Zm71.72,0v-.64c0-4,0-8.06,0-12.09,0-.38-.06-.51-.47-.46-1.57.22-3.16.4-4.74.6-.16,0-.43,0-.42.29s.28.21.44.23a2.21,2.21,0,0,1,2,1.82,6.83,6.83,0,0,1,.19,1.74q0,8.78,0,17.54a16.24,16.24,0,0,1-.09,2c-.19,1.69-.67,2.23-2.3,2.6-.16,0-.5-.09-.47.29s.37.2.55.2c1.85,0,3.7,0,5.56,0h2.14c.14,0,.34.08.35-.2s-.15-.25-.31-.29l-.53-.14A2.22,2.22,0,0,1,177.83,40a58.83,58.83,0,0,1,.09-8.5,6.48,6.48,0,0,1,1.22-3.3,4.16,4.16,0,0,1,4.55-1.36,3.35,3.35,0,0,1,2.4,3.31c.11,3.11.13,6.23,0,9.34-.06,1.42-.47,2.56-2.34,2.81-.18,0-.51-.06-.45.31s.33.17.49.17h7.86c.12,0,.22,0,.22-.17s0-.26-.16-.29l-.64-.17a2.27,2.27,0,0,1-1.88-2.31,24.71,24.71,0,0,1-.08-2.58c0-2.23,0-4.47,0-6.7a4,4,0,0,0-1.74-3.65,6.38,6.38,0,0,0-2.84-.91,6.87,6.87,0,0,0-6.19,2.09ZM18.16,38.11q0,13.11,0,26.22c0,.45.05.63.57.63q24.18,0,48.34,0c.45,0,.54-.13.54-.55q0-26.28,0-52.57c0-.5-.15-.59-.62-.59H18.76c-.52,0-.62.16-.61.64Q18.17,25,18.16,38.11Zm116.69,2.61a11.35,11.35,0,0,0,.17,2c0,.3.14.38.46.33,1.5-.23,3-.41,4.51-.62.19,0,.49.07.47-.29s-.3-.21-.46-.24a2.25,2.25,0,0,1-2.06-2,13.64,13.64,0,0,1-.18-2.63c0-3.51,0-7,0-10.55,0-.38-.08-.52-.48-.49s-.84,0-1.26,0c-1.16,0-2.31,0-3.47,0-.17,0-.48-.17-.51.2s.26.24.43.29l.11,0c1.58.4,2.1,1,2.17,2.57a82.56,82.56,0,0,1,0,8.9,4,4,0,0,1-3.65,3.93c-1.8.26-4-.36-4.25-3.08-.07-.71-.12-1.42-.13-2.13,0-3.12,0-6.23,0-9.35,0-1.37,0-1.37-1.35-1.37s-2.53,0-3.79,0c-.19,0-.53-.19-.57.2s.3.24.48.31.49.14.73.23a2.08,2.08,0,0,1,1.43,1.78,8.93,8.93,0,0,1,.09,1.37c0,2.87,0,5.75,0,8.63a3.85,3.85,0,0,0,2.34,3.72,7.54,7.54,0,0,0,5.25.31A8.2,8.2,0,0,0,134.85,40.72Zm83.08-13.16h0c0-3.86,0-7.73,0-11.59,0-.36,0-.53-.46-.47-1.6.22-3.19.41-4.79.62-.15,0-.38-.05-.38.26s.22.22.38.24a2.29,2.29,0,0,1,2.16,2.05,11.18,11.18,0,0,1,.13,2.08c0,5.7,0,11.4,0,17.09,0,.53,0,1.07-.05,1.59-.17,1.9-.74,2.62-2.35,2.86-.17,0-.51-.06-.45.32s.36.17.53.17h7.7c.14,0,.33.07.35-.21s-.16-.24-.31-.29c-.33-.1-.67-.18-1-.31A2.07,2.07,0,0,1,218,40.25a8.17,8.17,0,0,1-.1-1.31Q217.93,33.25,217.93,27.56Zm-9.68-.72q0-5.43,0-10.88c0-.31,0-.52-.43-.46-1.59.22-3.19.4-4.79.61-.16,0-.39,0-.4.27s.23.22.39.24a2.23,2.23,0,0,1,2.12,2,11.94,11.94,0,0,1,.18,2.46V37.75c0,.66,0,1.32-.1,2-.14,1.48-.71,2.21-1.91,2.49a4.8,4.8,0,0,1-.64.12c-.18,0-.27.07-.26.27s.18.18.32.19h7.92c.13,0,.34.11.39-.15s-.15-.3-.33-.34l-.47-.13a2.28,2.28,0,0,1-1.91-2.46c-.05-1-.08-2-.08-3.07Q208.25,31.74,208.25,26.84ZM165,25.94a8.62,8.62,0,0,0-9,9,7.49,7.49,0,0,0,4,7.19,9.44,9.44,0,0,0,6.4.77,4.8,4.8,0,0,0,3.78-3.36c.05-.13.21-.3-.06-.4s-.28.07-.35.22l-.24.5a4.16,4.16,0,0,1-4.45,2.39,5.62,5.62,0,0,1-4.28-2.92,9.91,9.91,0,0,1-.67-8.91A6.35,6.35,0,0,1,162.57,27a3.59,3.59,0,0,1,2.5-.61,2,2,0,0,1,1.69,1.3,7,7,0,0,0,.86,2,1.56,1.56,0,0,0,1.8.58,1.42,1.42,0,0,0,.87-1.65,2.17,2.17,0,0,0-1-1.46A7.06,7.06,0,0,0,165,25.94Zm-17.9,2.92c-.09-1-.15-1.8-.31-2.62-.05-.25-.13-.29-.35-.26-1.49.22-3,.43-4.46.63-.15,0-.28,0-.29.24s.12.21.27.24a2.47,2.47,0,0,1,2.35,2.67c.11,3.22.15,6.45,0,9.67-.11,2.17-.87,2.61-2.38,2.88-.18,0-.5-.08-.44.31s.32.16.48.16h7.92c.13,0,.22,0,.21-.18s0-.23-.12-.27-.32-.07-.48-.12a2.31,2.31,0,0,1-2.09-2.43c-.16-2.52-.12-5,0-7.58a8.83,8.83,0,0,1,.85-3.77,2.11,2.11,0,0,1,3.71-.51,4.23,4.23,0,0,0,.85.84,1.45,1.45,0,0,0,1.69-.07,1.38,1.38,0,0,0,.23-1.62,1.84,1.84,0,0,0-1.36-1,5.82,5.82,0,0,0-3.54.38A5.44,5.44,0,0,0,147.08,28.86ZM198.65,33h0c0-2.2,0-4.4,0-6.59,0-.4-.08-.49-.49-.43-1.57.22-3.15.41-4.73.61-.16,0-.39-.08-.4.23s.22.22.37.25a2.38,2.38,0,0,1,2.19,2.47,92.48,92.48,0,0,1,0,10c-.1,1.82-.62,2.37-2.37,2.76-.17,0-.45-.05-.41.29s.32.18.48.18h7.86c.11,0,.27.05.27-.16s0-.28-.2-.31a5.41,5.41,0,0,1-.79-.21,2.21,2.21,0,0,1-1.69-2c0-.31-.06-.62-.06-.93Q198.65,36.13,198.65,33ZM153.12,60.46h4.82c-.06-.22-.22-.15-.32-.17a1.3,1.3,0,0,1-1.2-1.28,30.69,30.69,0,0,1-.08-3.18c0-.28.07-.38.36-.39a1.72,1.72,0,0,1,1.56.85,11,11,0,0,1,1.52,3,1.53,1.53,0,0,0,2,1.25,4.17,4.17,0,0,0,1.15-.12c-.68-.09-1-.59-1.24-1.09s-.51-1-.8-1.5c-.51-.87-.69-2-1.76-2.53a2.58,2.58,0,0,0,2.15-1.64A2.52,2.52,0,0,0,159,50.26a50.29,50.29,0,0,0-5.76-.1s-.06.06-.1.11a.59.59,0,0,0,.16.08c1,.22,1.36.51,1.38,1.57,0,2.19,0,4.39,0,6.58,0,1.27-.21,1.45-1.5,1.84C153.16,60.34,153.16,60.39,153.12,60.46Zm-48.76-5.18c1.6-.4,2.38-1.28,2.34-2.55a2.43,2.43,0,0,0-2.25-2.43,37.19,37.19,0,0,0-6-.12l0,.07s.05.08.09.09c1.19.34,1.43.64,1.43,1.89,0,2.09,0,4.18,0,6.26,0,.93-.31,1.77-1.44,1.83,0,0-.06.07-.12.14h4.89c-.13-.09-.17-.14-.21-.14-1.19-.1-1.43-.9-1.44-1.77s0-1.8,0-2.7c0-.29,0-.41.38-.41a1.64,1.64,0,0,1,1.41.71,14.47,14.47,0,0,1,1.81,3.49c.26.68.6,1,1.35.88a11.88,11.88,0,0,1,1.58,0l0-.15c-.69-.09-1-.59-1.27-1.11-.41-.76-.8-1.52-1.18-2.3A2.93,2.93,0,0,0,104.36,55.28Zm13.3,5.47a5.43,5.43,0,1,0-5.49-5.35A5.34,5.34,0,0,0,117.66,60.75Zm-31.61-.3h5c-1.61-.57-1.72-.72-1.72-2.35,0-.75,0-1.5,0-2.25,0-.38.12-.47.46-.45.66,0,1.32,0,2,0A2.58,2.58,0,0,0,94.32,54a2.68,2.68,0,0,0-2.09-3.76,51.37,51.37,0,0,0-6.08-.09s0,0-.06.09.08.08.12.08c1.17.1,1.44.83,1.45,1.77,0,2.16,0,4.32,0,6.48a3.51,3.51,0,0,1-.09.65,1.25,1.25,0,0,1-1.07,1C86.36,60.3,86.21,60.26,86.05,60.45Zm46.48,0c0-.15-.07-.16-.14-.16-.92-.06-1.37-.71-1.37-1.67s0-1.9,0-2.85c0-.33.11-.4.41-.39.68,0,1.35,0,2,0a2.56,2.56,0,0,0,2.64-1.57,2.68,2.68,0,0,0-2.22-3.58,50.67,50.67,0,0,0-6-.08s0,.06,0,.09c1.36.52,1.55.73,1.56,1.92q0,3.15,0,6.32c0,1.2-.29,1.52-1.45,1.82,0,0-.08.06-.18.15Zm62.72-3.28a20.36,20.36,0,0,0,.13-4c-.09,0-.13.07-.14.11-.3,1.45-.75,1.79-2.23,1.67-.2,0-.3,0-.3-.27,0-1.34,0-2.68,0-4,0-.2.08-.26.27-.25a23.3,23.3,0,0,1,2.36,0,2.36,2.36,0,0,1,2.18,1.93c0,.1-.05.27.13.29,0-.69,0-1.37,0-2,0-.38-.14-.48-.52-.47h-7.26c-.13,0-.28-.07-.4.08.1.19.28.13.43.16a1.22,1.22,0,0,1,1,1,4.32,4.32,0,0,1,.11.87c0,2,0,4.07,0,6.11a3.49,3.49,0,0,1-.07.71,1.27,1.27,0,0,1-1.2,1.2c-.11,0-.28,0-.29.23h8.57c.17,0,.46.11.46-.21,0-.92,0-1.84,0-2.76-.17,0-.16.18-.18.28-.47,2.15-1.91,2.57-3.69,2.44a1.81,1.81,0,0,1-1.88-1.84c-.09-1-.05-2-.06-3,0-.13,0-.25.18-.25,1.07,0,1.86.1,2.21,1.33C195.17,56.74,195.2,57,195.25,57.19Zm-55.18,3.25a1.13,1.13,0,0,0,.62.06h7.42c1,0,1,0,1.06-1V57.52c-.19,0-.18.2-.2.31-.49,2.2-2,2.55-3.7,2.41a1.8,1.8,0,0,1-1.86-1.79,25.21,25.21,0,0,1-.07-3c0-.15,0-.22.21-.26a1.81,1.81,0,0,1,2.18,1.36c.06.22.1.44.15.66l.13,0V53a2.11,2.11,0,0,0-.15.22c-.27,1.44-.76,1.81-2.22,1.68-.24,0-.3-.1-.3-.33v-3.9c0-.19,0-.31.27-.3a17.12,17.12,0,0,1,2.58.09,2.27,2.27,0,0,1,1.87,1.63c.07.19,0,.43.22.59,0-.7,0-1.38,0-2.06,0-.41-.14-.51-.54-.5-2.42,0-4.84,0-7.26,0-.13,0-.28,0-.4.08,1.58.72,1.58.72,1.58,2.59s0,3.66,0,5.49a4.19,4.19,0,0,1-.09.93,1.29,1.29,0,0,1-1.08,1C140.37,60.3,140.21,60.26,140.07,60.44Zm68.79-10.32c-.34.49-.73.37-1.14.18a7,7,0,0,0-.87-.32,2.83,2.83,0,0,0-3.38,1.67,2.66,2.66,0,0,0,1.07,3.48c.25.16.51.29.77.43a8.27,8.27,0,0,1,1.9,1.18,2.31,2.31,0,0,1,.06,3.22,2.13,2.13,0,0,1-3-.21,4.82,4.82,0,0,1-.95-1.66c-.1-.24-.09-.54-.38-.81v3.29c.42-.62.87-.43,1.36-.2a4.68,4.68,0,0,0,2.25.38,3.13,3.13,0,0,0,1.76-5.61,8.21,8.21,0,0,0-1.38-.79,7.64,7.64,0,0,1-1.76-1,1.81,1.81,0,0,1-.17-2.75,1.89,1.89,0,0,1,2.73.25,4.69,4.69,0,0,1,.86,1.64c.07.2.06.46.31.67ZM176.65,53c0-.78,0-1.5,0-2.22,0-.49-.12-.67-.68-.66-2.94,0-5.89,0-8.84,0-.81,0-.8,0-.84.84,0,.45-.07.91-.09,1.36a.88.88,0,0,0,.12.68c.08-.27.15-.47.21-.67a2.33,2.33,0,0,1,2.08-1.83c.51-.06,1-.08,1.53-.13.34,0,.47.06.46.43,0,2.6,0,5.2,0,7.8,0,1.06-.36,1.46-1.4,1.69-.07,0-.15,0-.15.15h4.79c0-.17-.14-.15-.22-.16-.92-.18-1.31-.57-1.32-1.53,0-2.69,0-5.38,0-8.07,0-.19,0-.32.26-.31,2.06,0,3.57.18,4,2.52A.49.49,0,0,1,176.65,53Zm3.87-2.82c0,.17.14.16.22.17.95.18,1.24.49,1.33,1.45a25.36,25.36,0,0,1,0,3c0,1.41.09,2.82-.06,4.23a1.28,1.28,0,0,1-1.14,1.22c-.13,0-.35-.07-.37.18h4.79c0-.17-.13-.15-.21-.17a1.38,1.38,0,0,1-1.31-1.59q-.09-3.27,0-6.54c0-1.26.22-1.49,1.43-1.82l.15,0-.07-.11ZM197.1,19a1.65,1.65,0,0,0,1.74-1.7,1.72,1.72,0,0,0-1.77-1.71,1.68,1.68,0,0,0-1.75,1.76A1.6,1.6,0,0,0,197.1,19Z"></path><path class="cls-2" d="M18.16,38.11q0-13.12,0-26.23c0-.48.09-.64.61-.64H67c.47,0,.62.09.62.59q0,26.3,0,52.57c0,.42-.09.56-.54.55q-24.16,0-48.34,0c-.52,0-.57-.18-.57-.63Q18.17,51.22,18.16,38.11Zm.57,0q0,12.81,0,25.62c0,.49.11.64.62.64q23.51,0,47,0c.51,0,.68-.09.68-.65q0-25.62,0-51.24c0-.48-.11-.64-.63-.64q-23.54,0-47.06,0c-.53,0-.62.17-.62.65Q18.74,25.31,18.73,38.12Z"></path><path class="cls-3" d="M197.1,19a1.6,1.6,0,0,1-1.78-1.65,1.68,1.68,0,0,1,1.75-1.76,1.72,1.72,0,0,1,1.77,1.71A1.65,1.65,0,0,1,197.1,19Z"></path><path class="cls-1" d="M18.73,38.12q0-12.81,0-25.62c0-.48.09-.65.62-.65q23.52,0,47.06,0c.52,0,.63.16.63.64q0,25.62,0,51.24c0,.56-.17.65-.68.65q-23.5,0-47,0c-.51,0-.62-.15-.62-.64Q18.74,50.93,18.73,38.12ZM24,38.06q0,10.5,0,21c0,.55.16.65.67.65H61.05c.71,0,.71,0,.71-.7q0-20.93,0-41.84c0-.52-.1-.67-.65-.67q-18.25,0-36.51,0c-.49,0-.64.1-.64.62Q24,27.58,24,38.06Z"></path><path class="cls-2" d="M24,38.06q0-10.47,0-21c0-.52.15-.62.64-.62q18.26,0,36.51,0c.55,0,.65.15.65.67q0,20.91,0,41.84c0,.7,0,.7-.71.7H24.64c-.51,0-.67-.1-.67-.65Q24,48.56,24,38.06Zm36.5.08q0-9.87,0-19.74c0-.48-.11-.61-.6-.61q-17,0-34,0c-.46,0-.63.08-.63.59q0,19.74,0,39.48c0,.45.12.58.58.58h34.1c.51,0,.59-.15.59-.62Q60.49,48,60.49,38.14Z"></path><path class="cls-1" d="M60.49,38.14q0,9.84,0,19.68c0,.47-.08.62-.59.62H25.81c-.46,0-.58-.13-.58-.58q0-19.74,0-39.48c0-.51.17-.59.63-.59q17,0,34,0c.49,0,.6.13.6.61Q60.49,28.27,60.49,38.14ZM48.26,52.24c-1.89-.05-3.79-.05-5.68,0l-.09,0,.08.1c.09.21.27.21.46.21l6,0,.14,0-.15-.16c-.53-.64-1.06-1.29-1.6-1.93a.85.85,0,0,1-.25-.63c0-1.53,0-3.06,0-4.59,0-.31.11-.43.4-.43l.13,0a3.82,3.82,0,0,0,1.12,0l.17,0a8.14,8.14,0,0,0,1.48,0l.2,0,.38,0h0l0,0,.44,0,.15-.06a4.15,4.15,0,0,0,1.72-.45,3.52,3.52,0,0,0,.45-.18c2.88-1.46,2.64-5.57,1.23-7.1a1.41,1.41,0,0,0-.65-.46,6.71,6.71,0,0,1,1.16,2,4.51,4.51,0,0,1-2.41,5.5l-.78.26-.14.06-.3,0-.22.07-.33,0-.25.07-1,.07-.14,0H47.79l-.14,0H47.3l-.21,0c-.39,0-.23.25-.23.4,0,1.68,0,3.37,0,5.05a1.17,1.17,0,0,0,.24.71l-.12.09a1.48,1.48,0,0,1-.8-1.52c.06-1.62,0-3.26,0-4.89,0-.37.1-.51.49-.5.92,0,1.83,0,2.75,0a9,9,0,0,0,3.07-.53A3.79,3.79,0,0,0,55,40.17a4,4,0,0,0-1.54-4A6.53,6.53,0,0,0,49.87,35c-2.58-.23-5.17,0-7.75-.12a.49.49,0,0,0-.57.51c-.06.41-.11.83-.2,1.24a4,4,0,0,1-7.68,1.11,7,7,0,0,1-.54-1.26,16,16,0,0,1-.38-7.12A6.44,6.44,0,0,1,34.1,26a3.36,3.36,0,0,1,4.41-.71,4.85,4.85,0,0,1,2.08,3.24c0,.2,0,.44.28.57A39.72,39.72,0,0,1,43,24.73c.05-.08.16-.18.05-.29s-.21,0-.31,0a2.52,2.52,0,0,1-2.13.06l-.82-.29a7.77,7.77,0,0,0-4.59-.41,7.16,7.16,0,0,0-4.83,4.44,11,11,0,0,0-.67,6c.45,3.64,2.8,7.24,7.93,6.89a4.69,4.69,0,0,0,4.52-3.44,7.26,7.26,0,0,0,.34-2.24c.31.31.66.42.64.86a5.5,5.5,0,0,1-4.38,5.36,8.51,8.51,0,0,1-4.07-.24l-1.29-.63a2.63,2.63,0,0,0,1.15.74,6.67,6.67,0,0,0,5.64.11c2-.83,2.82-2.58,3.31-4.55,0,1.71,0,3.39,0,5.08,0,.41,0,.6-.55.61A2.49,2.49,0,0,0,40.9,44c-.07.11-.16.23,0,.34s.2,0,.29-.08A3.37,3.37,0,0,1,43,43.78c.23,0,.49-.07.5.32s-.22.34-.46.34a3.13,3.13,0,0,0-1.47.39c-.08,0-.18.06-.15.19s.17.12.26.08A5.69,5.69,0,0,1,43,44.79c.38-.06.56,0,.55.48,0,1.19-.06,2.38,0,3.57a1.73,1.73,0,0,1-.84,1.84,5.07,5.07,0,0,0-.79.68l-.08.09.09,0c2,.05,4,.07,6,0l.09.1.43.6ZM39.37,26.69a2.54,2.54,0,0,0-1.7-1.18A3.12,3.12,0,0,0,34,27.81a13.71,13.71,0,0,0-.58,5.25,10.78,10.78,0,0,0,1,4.57A3.88,3.88,0,0,0,36,39.42a.76.76,0,0,0,.75.12,4.36,4.36,0,0,1-2.22-2.62,14.6,14.6,0,0,1-.69-6.12,8.07,8.07,0,0,1,.92-3.63,2.66,2.66,0,0,1,3.66-1C38.74,26.29,39,26.49,39.37,26.69Zm4.71-1.55C44,25.09,44,25,43.9,25s-.21.11-.27.21c-.77,1.33-1.52,2.66-2.16,4.06-.06.14-.21.3,0,.41s.29-.12.36-.27a41.79,41.79,0,0,1,2-3.93C44,25.37,44,25.27,44.08,25.14Z"></path><path class="cls-2" d="M47.88,51.47c-2,.08-4,.06-6,0v-.12a5.07,5.07,0,0,1,.79-.68,1.73,1.73,0,0,0,.84-1.84c-.06-1.19,0-2.38,0-3.57,0-.45-.17-.54-.55-.48a5.69,5.69,0,0,0-1.28.31c-.09,0-.21.09-.26-.08s.07-.16.15-.19a3.13,3.13,0,0,1,1.47-.39c.24,0,.48.05.46-.34s-.27-.32-.5-.32a3.37,3.37,0,0,0-1.88.51c-.09.05-.18.17-.29.08s0-.23,0-.34A2.49,2.49,0,0,1,43,42.81c.51,0,.55-.2.55-.61,0-1.69,0-3.37,0-5.08-.49,2-1.32,3.72-3.31,4.55a6.67,6.67,0,0,1-5.64-.11l.14-.11a8.51,8.51,0,0,0,4.07.24,5.5,5.5,0,0,0,4.38-5.36c0-.44-.33-.55-.64-.86a7.26,7.26,0,0,1-.34,2.24,4.69,4.69,0,0,1-4.52,3.44c-5.13.35-7.48-3.25-7.93-6.89a11,11,0,0,1,.67-6,7.16,7.16,0,0,1,4.83-4.44,7.77,7.77,0,0,1,4.59.41l.82.29a2.52,2.52,0,0,0,2.13-.06c.1-.06.21-.11.31,0s0,.21-.05.29a39.72,39.72,0,0,0-2.14,4.34c-.27-.13-.23-.37-.28-.57a4.85,4.85,0,0,0-2.08-3.24A3.36,3.36,0,0,0,34.1,26a6.44,6.44,0,0,0-1.35,3.37,16,16,0,0,0,.38,7.12,7,7,0,0,0,.54,1.26,4,4,0,0,0,7.68-1.11c.09-.41.14-.83.2-1.24a.49.49,0,0,1,.57-.51c2.58.07,5.17-.11,7.75.12a6.53,6.53,0,0,1,3.59,1.19,4,4,0,0,1,1.54,4,3.79,3.79,0,0,1-2.52,3.07,9,9,0,0,1-3.07.53c-.92,0-1.83,0-2.75,0-.39,0-.49.13-.49.5,0,1.63,0,3.27,0,4.89a1.48,1.48,0,0,0,.8,1.52l.17.17.12.11s.09.14.17,0c0,.11,0,.13.11.1-.07.11,0,.15.08.19s0,0,.06,0l-.15-.14-.1-.11-.1-.13-.1-.12-.14-.16a1.17,1.17,0,0,1-.24-.71c0-1.68,0-3.37,0-5.05,0-.15-.16-.45.23-.4a.13.13,0,0,0,.21,0h.35l.14,0h2.34l.14,0,1-.07.25-.07.33,0,.22-.07.3,0,.14-.06.78-.26a.22.22,0,0,1,.22.22,4.15,4.15,0,0,1-1.72.45l-.15.06-.44,0h-.08l-.38,0c-.08-.07-.14,0-.2,0a8.14,8.14,0,0,1-1.48,0l-.17,0a3.82,3.82,0,0,1-1.12,0l-.13,0c-.29,0-.4.12-.4.43,0,1.53,0,3.06,0,4.59a.85.85,0,0,0,.25.63c.54.64,1.07,1.29,1.6,1.93v.2l-6,0c-.19,0-.37,0-.46-.21v-.13c1.89-.05,3.79-.05,5.68,0l.14-.07-.43-.6Zm3.25-13.71a7.07,7.07,0,0,0-3.43-.5c-.38,0-.51.1-.5.48,0,1.29,0,2.57,0,3.85s0,1.16,1.13,1.07a5.12,5.12,0,0,0,2.89-.9,3,3,0,0,0,.86-3.06A2.71,2.71,0,0,0,50,36.44a11.58,11.58,0,0,0-3.27-.26c-.39,0-.54.11-.53.53,0,1.83,0,3.66,0,5.49,0,.27,0,.51.36.51s.31-.28.31-.5c0-1.61,0-3.22,0-4.83,0-.36.11-.48.47-.46.69,0,1.39,0,2.08,0a2.34,2.34,0,0,1,1.84.69Z"></path><path class="cls-2" d="M39.37,26.69c-.33-.2-.63-.4-.94-.56a2.66,2.66,0,0,0-3.66,1,8.07,8.07,0,0,0-.92,3.63,14.6,14.6,0,0,0,.69,6.12,4.36,4.36,0,0,0,2.22,2.62.76.76,0,0,1-.75-.12,3.88,3.88,0,0,1-1.56-1.79,10.78,10.78,0,0,1-1-4.57A13.71,13.71,0,0,1,34,27.81a3.12,3.12,0,0,1,3.67-2.3A2.54,2.54,0,0,1,39.37,26.69Z"></path><path class="cls-2" d="M53.47,44.11a.22.22,0,0,0-.22-.22,4.51,4.51,0,0,0,2.41-5.5,6.71,6.71,0,0,0-1.16-2,1.41,1.41,0,0,1,.65.46c1.41,1.53,1.65,5.64-1.23,7.1A3.52,3.52,0,0,1,53.47,44.11Z"></path><path class="cls-2" d="M44.08,25.14c-.07.13-.12.23-.18.32a41.79,41.79,0,0,0-2,3.93c-.07.15-.08.41-.36.27s-.09-.27,0-.41c.64-1.4,1.39-2.73,2.16-4.06.06-.1.09-.26.27-.21S44,25.09,44.08,25.14Z"></path><path class="cls-2" d="M34.69,41.45l-.14.11a2.63,2.63,0,0,1-1.15-.74Z"></path><path class="cls-2" d="M49.07,52.56v-.2l.15.16Z"></path><path class="cls-2" d="M47.3,44.49a.13.13,0,0,1-.21,0Z"></path><path class="cls-2" d="M51.48,44.36l-.25.07Z"></path><path class="cls-2" d="M52,44.26l-.22.07Z"></path><path class="cls-2" d="M50.5,44.75c.06-.08.12-.1.2,0Z"></path><path class="cls-2" d="M51.08,44.67h.08l0,0Z"></path><path class="cls-2" d="M51.6,44.62l.15-.06Z"></path><path class="cls-2" d="M47.6,44.78l.13,0Z"></path><path class="cls-2" d="M48.85,44.83l.17,0Z"></path><path class="cls-2" d="M50.27,44.5l-.14,0Z"></path><path class="cls-2" d="M47.79,44.53l-.14,0Z"></path><path class="cls-2" d="M52.47,44.15l-.14.06Z"></path><path class="cls-2" d="M47.88,51.47l.09.1Z"></path><path class="cls-2" d="M48.4,52.17l-.14.07Z"></path><path class="cls-2" d="M42.58,52.24v.13l-.08-.1Z"></path><path class="cls-2" d="M41.91,51.36v.12l-.09,0Z"></path><path class="cls-1" d="M51.23,37.66A2.34,2.34,0,0,0,49.39,37c-.69,0-1.39,0-2.08,0-.36,0-.47.1-.47.46,0,1.61,0,3.22,0,4.83,0,.22.1.49-.31.5s-.36-.24-.36-.51c0-1.83,0-3.66,0-5.49,0-.42.14-.52.53-.53a11.58,11.58,0,0,1,3.27.26,2.71,2.71,0,0,1,2.12,2.26,3,3,0,0,1-.86,3.06,5.12,5.12,0,0,1-2.89.9c-1.13.09-1.13.08-1.13-1.07s0-2.56,0-3.85c0-.38.12-.49.5-.48a7.07,7.07,0,0,1,3.43.5.37.37,0,0,0,.25.19l.06,0v-.06l-.07,0C51.48,37.79,51.31,37.75,51.23,37.66Z"></path><path class="cls-1" d="M47.52,51.15l.15.14s-.05.05-.06,0-.15-.08-.08-.19Z"></path><path class="cls-1" d="M47.08,50.63l.14.16-.09.1L47,50.72Z"></path><path class="cls-1" d="M47.22,50.79l.1.12-.08.09-.11-.11Z"></path><path class="cls-1" d="M47.42,51c-.08.1-.12,0-.17,0l.07-.09.1.13Z"></path><path class="cls-1" d="M47.53,51.14c-.1,0-.15,0-.11-.1h0l.1.11Z"></path><path class="cls-2" d="M51.23,37.66c.08.09.25.13.14.3h0a.37.37,0,0,1-.25-.19Z"></path><path class="cls-2" d="M51.37,38l.07,0V38l-.06,0Z"></path><path class="cls-4" d="M74.87,30.4a15.82,15.82,0,0,1,2.59-9.35,12.81,12.81,0,0,1,8-5.1,14.78,14.78,0,0,1,8.38.47c.65.23,1.31.45,2,.64a1,1,0,0,0,1.44-.62c.1-.2.18-.4.47-.34s.18.32.18.48c.09,2.58.15,5.16.21,7.74,0,.15.15.39-.13.46s-.37-.13-.45-.35c-.38-1-.74-2-1.17-3a8.55,8.55,0,0,0-4.71-4.82A7.51,7.51,0,0,0,83.17,19a14.57,14.57,0,0,0-3.36,7.51,19,19,0,0,0,.62,8.79,9.38,9.38,0,0,0,5.25,6.14,10.16,10.16,0,0,0,8,0,6.91,6.91,0,0,0,4-4.91c.12-.42.22-.85.32-1.28,0-.15,0-.33.27-.3s.22.25.2.4c-.46,3.12-1.61,6.15-5.86,7.44A14.65,14.65,0,0,1,81,41.65c-3.37-1.84-5.12-4.9-5.82-8.61A13.66,13.66,0,0,1,74.87,30.4Z"></path><path class="cls-5" d="M106,28.74C108.2,26,111,25.52,114,26.23a4,4,0,0,1,3.37,4.25c.06,2.62,0,5.24,0,7.86,0,.57,0,1.14.08,1.7A2.12,2.12,0,0,0,119,42a7,7,0,0,0,.89.27c.17,0,.25.1.24.29s-.17.19-.31.19H112c-.15,0-.39.12-.41-.19s.21-.25.38-.28c1.86-.26,2.34-1.2,2.41-2.79.15-3.13.13-6.26,0-9.39a3.37,3.37,0,0,0-2.53-3.34,4.16,4.16,0,0,0-4.53,1.56,8.3,8.3,0,0,0-1.25,4.54c-.07,2.18,0,4.36,0,6.54,0,1.74.59,2.37,2.31,2.84.18,0,.5,0,.43.35s-.33.16-.49.16h-7.64c-.16,0-.42.16-.47-.18s.24-.25.41-.29c1.81-.4,2.25-1,2.42-3.08,0-.42,0-.84,0-1.27q0-9,0-17.92a6.38,6.38,0,0,0-.2-1.68,2.23,2.23,0,0,0-2-1.74c-.17,0-.44.11-.42-.25s.28-.25.44-.27c1.56-.21,3.13-.38,4.69-.6.44-.06.5.08.5.48q0,6,0,12.09Z"></path><path class="cls-5" d="M177.76,28.69l.54-.59A6.87,6.87,0,0,1,184.49,26a6.38,6.38,0,0,1,2.84.91,4,4,0,0,1,1.74,3.65c0,2.23,0,4.47,0,6.7a24.71,24.71,0,0,0,.08,2.58,2.27,2.27,0,0,0,1.88,2.31l.64.17c.18,0,.16.16.16.29s-.1.17-.22.17h-7.86c-.16,0-.43.15-.49-.17s.27-.29.45-.31c1.87-.25,2.28-1.39,2.34-2.81.14-3.11.12-6.23,0-9.34a3.35,3.35,0,0,0-2.4-3.31,4.16,4.16,0,0,0-4.55,1.36,6.48,6.48,0,0,0-1.22,3.3,58.83,58.83,0,0,0-.09,8.5,2.22,2.22,0,0,0,1.85,2.16l.53.14c.16,0,.32,0,.31.29s-.21.19-.35.2H178c-1.86,0-3.71,0-5.56,0-.18,0-.51.22-.55-.2s.31-.25.47-.29c1.63-.37,2.11-.91,2.3-2.6a16.24,16.24,0,0,0,.09-2q0-8.77,0-17.54a6.83,6.83,0,0,0-.19-1.74,2.21,2.21,0,0,0-2-1.82c-.16,0-.43.13-.44-.23s.26-.27.42-.29c1.58-.2,3.17-.38,4.74-.6.41-.05.47.08.47.46,0,4,0,8.06,0,12.09Z"></path><path class="cls-4" d="M134.85,40.72a8.2,8.2,0,0,1-3.52,2.1,7.54,7.54,0,0,1-5.25-.31,3.85,3.85,0,0,1-2.34-3.72c0-2.88,0-5.76,0-8.63a8.93,8.93,0,0,0-.09-1.37A2.08,2.08,0,0,0,122.19,27c-.24-.09-.49-.15-.73-.23s-.52,0-.48-.31.38-.2.57-.2c1.26,0,2.52,0,3.79,0s1.35,0,1.35,1.37c0,3.12,0,6.23,0,9.35,0,.71.06,1.42.13,2.13.26,2.72,2.45,3.34,4.25,3.08a4,4,0,0,0,3.65-3.93,82.56,82.56,0,0,0,0-8.9c-.07-1.61-.59-2.17-2.17-2.57l-.11,0c-.17-.05-.45,0-.43-.29s.34-.2.51-.2c1.16,0,2.31,0,3.47,0,.42,0,.84,0,1.26,0s.48.11.48.49c0,3.52,0,7,0,10.55a13.64,13.64,0,0,0,.18,2.63,2.25,2.25,0,0,0,2.06,2c.16,0,.45-.08.46.24s-.28.26-.47.29c-1.51.21-3,.39-4.51.62-.32,0-.42,0-.46-.33A11.35,11.35,0,0,1,134.85,40.72Z"></path><path class="cls-4" d="M217.93,27.56q0,5.7,0,11.38a8.17,8.17,0,0,0,.1,1.31A2.07,2.07,0,0,0,219.39,42c.32.13.66.21,1,.31.15.05.32,0,.31.29s-.21.19-.35.21h-7.7c-.17,0-.47.18-.53-.17s.28-.29.45-.32c1.61-.24,2.18-1,2.35-2.86.05-.52.05-1.06.05-1.59,0-5.69,0-11.39,0-17.09a11.18,11.18,0,0,0-.13-2.08,2.29,2.29,0,0,0-2.16-2.05c-.16,0-.38.08-.38-.24s.23-.25.38-.26c1.6-.21,3.19-.4,4.79-.62.42-.06.46.11.46.47,0,3.86,0,7.73,0,11.59Z"></path><path class="cls-6" d="M208.25,26.84q0,4.9,0,9.79c0,1,0,2,.08,3.07a2.28,2.28,0,0,0,1.91,2.46l.47.13c.18,0,.38.07.33.34s-.26.15-.39.15h-7.92c-.14,0-.31.05-.32-.19s.08-.25.26-.27a4.8,4.8,0,0,0,.64-.12c1.2-.28,1.77-1,1.91-2.49.06-.65.09-1.31.1-2V21a11.94,11.94,0,0,0-.18-2.46,2.23,2.23,0,0,0-2.12-2c-.16,0-.39.07-.39-.24s.24-.25.4-.27c1.6-.21,3.2-.39,4.79-.61.43-.06.43.15.43.46Q208.25,21.41,208.25,26.84Z"></path><path class="cls-7" d="M165,25.94a7.06,7.06,0,0,1,4.33,1.25,2.17,2.17,0,0,1,1,1.46,1.42,1.42,0,0,1-.87,1.65,1.56,1.56,0,0,1-1.8-.58,7,7,0,0,1-.86-2,2,2,0,0,0-1.69-1.3,3.59,3.59,0,0,0-2.5.61,6.35,6.35,0,0,0-2.45,3.41,9.91,9.91,0,0,0,.67,8.91,5.62,5.62,0,0,0,4.28,2.92,4.16,4.16,0,0,0,4.45-2.39l.24-.5c.07-.15.12-.3.35-.22s.11.27.06.4a4.8,4.8,0,0,1-3.78,3.36,9.44,9.44,0,0,1-6.4-.77A7.49,7.49,0,0,1,156,35a8.62,8.62,0,0,1,9-9Z"></path><path class="cls-4" d="M147.08,28.86a5.44,5.44,0,0,1,2.69-2.41,5.82,5.82,0,0,1,3.54-.38,1.84,1.84,0,0,1,1.36,1,1.38,1.38,0,0,1-.23,1.62,1.45,1.45,0,0,1-1.69.07,4.23,4.23,0,0,1-.85-.84,2.11,2.11,0,0,0-3.71.51,8.83,8.83,0,0,0-.85,3.77c-.08,2.53-.12,5.06,0,7.58a2.31,2.31,0,0,0,2.09,2.43c.16.05.32.08.48.12s.11.17.12.27-.08.18-.21.18h-7.92c-.16,0-.42.16-.48-.16s.26-.28.44-.31c1.51-.27,2.27-.71,2.38-2.88.16-3.22.12-6.45,0-9.67a2.47,2.47,0,0,0-2.35-2.67c-.15,0-.27,0-.27-.24s.14-.22.29-.24c1.49-.2,3-.41,4.46-.63.22,0,.3,0,.35.26C146.93,27.06,147,27.89,147.08,28.86Z"></path><path class="cls-7" d="M198.65,33q0,3.1,0,6.21c0,.31,0,.62.06.93a2.21,2.21,0,0,0,1.69,2,5.41,5.41,0,0,0,.79.21c.21,0,.2.16.2.31s-.16.15-.27.16h-7.86c-.16,0-.43.16-.48-.18s.24-.26.41-.29c1.75-.39,2.27-.94,2.37-2.76a92.48,92.48,0,0,0,0-10,2.38,2.38,0,0,0-2.19-2.47c-.15,0-.39.06-.37-.25s.24-.21.4-.23c1.58-.2,3.16-.39,4.73-.61.41-.06.49,0,.49.43,0,2.19,0,4.39,0,6.59Z"></path><path class="cls-6" d="M153.12,60.46c0-.07,0-.12.06-.12,1.29-.39,1.48-.57,1.5-1.84,0-2.19,0-4.39,0-6.58,0-1.06-.33-1.35-1.38-1.57a.59.59,0,0,1-.16-.08c0-.05.07-.11.1-.11a50.29,50.29,0,0,1,5.76.1,2.52,2.52,0,0,1,2.29,3.37,2.58,2.58,0,0,1-2.15,1.64c1.07.56,1.25,1.66,1.76,2.53.29.49.52,1,.8,1.5s.56,1,1.24,1.09a4.17,4.17,0,0,1-1.15.12,1.53,1.53,0,0,1-2-1.25,11,11,0,0,0-1.52-3,1.72,1.72,0,0,0-1.56-.85c-.29,0-.37.11-.36.39a30.69,30.69,0,0,0,.08,3.18,1.3,1.3,0,0,0,1.2,1.28c.1,0,.26,0,.32.17Zm3.22-7.65V54.9c0,.15-.06.39.19.38.83,0,1.69,0,2.34-.67a2.71,2.71,0,0,0,.36-3.07,2.56,2.56,0,0,0-2.65-1.16c-.3,0-.24.23-.24.4Z"></path><path class="cls-6" d="M104.36,55.28A2.93,2.93,0,0,1,105.75,57c.38.78.77,1.54,1.18,2.3.28.52.58,1,1.27,1.11l0,.15a11.88,11.88,0,0,0-1.58,0c-.75.11-1.09-.2-1.35-.88a14.47,14.47,0,0,0-1.81-3.49,1.64,1.64,0,0,0-1.41-.71c-.33,0-.39.12-.38.41,0,.9,0,1.8,0,2.7s.25,1.67,1.44,1.77c0,0,.08,0,.21.14H98.42c.06-.07.09-.14.12-.14,1.13-.06,1.45-.9,1.44-1.83,0-2.08,0-4.17,0-6.26,0-1.25-.24-1.55-1.43-1.89,0,0-.07-.06-.09-.09l0-.07a37.19,37.19,0,0,1,6,.12,2.43,2.43,0,0,1,2.25,2.43C106.74,54,106,54.88,104.36,55.28Zm-2.71-2.44v2.09c0,.15-.05.38.21.36.75-.07,1.54.05,2.17-.55a2.63,2.63,0,0,0,.55-3.07c-.53-1.07-1.26-1.3-2.67-1.28-.3,0-.26.19-.26.37Z"></path><path class="cls-6" d="M117.66,60.75a5.34,5.34,0,0,1-5.49-5.35,5.58,5.58,0,1,1,5.49,5.35Zm3.81-5.32a7.34,7.34,0,0,0-1-3.76,3.19,3.19,0,0,0-5.47,0A7.36,7.36,0,0,0,114,55a5.87,5.87,0,0,0,1.35,4.44,3.08,3.08,0,0,0,4.76,0A5.77,5.77,0,0,0,121.47,55.43Z"></path><path class="cls-6" d="M86.05,60.45c.16-.19.31-.15.45-.18a1.25,1.25,0,0,0,1.07-1,3.51,3.51,0,0,0,.09-.65c0-2.16,0-4.32,0-6.48,0-.94-.28-1.67-1.45-1.77,0,0-.08-.05-.12-.08s0-.09.06-.09a51.37,51.37,0,0,1,6.08.09A2.68,2.68,0,0,1,94.32,54a2.58,2.58,0,0,1-2.55,1.38c-.66,0-1.32,0-2,0-.34,0-.48.07-.46.45,0,.75,0,1.5,0,2.25,0,1.63.11,1.78,1.72,2.35Zm3.28-7.72c0,.67,0,1.35,0,2,0,.13-.08.36.13.37a3.22,3.22,0,0,0,2.45-.47,2.57,2.57,0,0,0,.58-2.87,2.13,2.13,0,0,0-2.2-1.39c-.2,0-.4,0-.6,0s-.38.08-.37.37C89.35,51.41,89.33,52.07,89.33,52.73Z"></path><path class="cls-6" d="M132.53,60.47h-4.82c.1-.09.14-.14.18-.15,1.16-.3,1.44-.62,1.45-1.82q0-3.16,0-6.32c0-1.19-.2-1.4-1.56-1.92,0,0,0-.09,0-.09a50.67,50.67,0,0,1,6,.08,2.68,2.68,0,0,1,2.22,3.58,2.56,2.56,0,0,1-2.64,1.57c-.68,0-1.35,0-2,0-.3,0-.42.06-.41.39,0,1,0,1.9,0,2.85s.45,1.61,1.37,1.67C132.46,60.31,132.54,60.32,132.53,60.47ZM131,52.74V53.9c0,1.33,0,1.33,1.35,1.22a2.15,2.15,0,0,0,2-2.28,2.29,2.29,0,0,0-2-2.44c-.35,0-.7,0-1,0s-.3.1-.29.32Z"></path><path class="cls-6" d="M195.25,57.19c-.05-.22-.08-.45-.14-.67-.35-1.23-1.14-1.36-2.21-1.33-.19,0-.19.12-.18.25,0,1,0,2,.06,3a1.81,1.81,0,0,0,1.88,1.84c1.78.13,3.22-.29,3.69-2.44,0-.1,0-.26.18-.28,0,.92,0,1.84,0,2.76,0,.32-.29.21-.46.21h-8.57c0-.26.18-.2.29-.23a1.27,1.27,0,0,0,1.2-1.2,3.49,3.49,0,0,0,.07-.71c0-2,0-4.07,0-6.11a4.32,4.32,0,0,0-.11-.87,1.22,1.22,0,0,0-1-1c-.15,0-.33,0-.43-.16.12-.15.27-.08.4-.08h7.26c.38,0,.52.09.52.47,0,.68,0,1.36,0,2-.18,0-.11-.19-.13-.29a2.36,2.36,0,0,0-2.18-1.93,23.3,23.3,0,0,0-2.36,0c-.19,0-.27,0-.27.25,0,1.33,0,2.67,0,4,0,.23.1.26.3.27,1.48.12,1.93-.22,2.23-1.67,0,0,0-.08.14-.11A20.36,20.36,0,0,1,195.25,57.19Z"></path><path class="cls-6" d="M140.07,60.44c.14-.18.3-.14.43-.17a1.29,1.29,0,0,0,1.08-1,4.19,4.19,0,0,0,.09-.93c0-1.83,0-3.66,0-5.49s0-1.87-1.58-2.59c.12-.13.27-.08.4-.08,2.42,0,4.84,0,7.26,0,.4,0,.56.09.54.5,0,.68,0,1.36,0,2.06-.2-.16-.15-.4-.22-.59a2.27,2.27,0,0,0-1.87-1.63,17.12,17.12,0,0,0-2.58-.09c-.23,0-.27.11-.27.3v3.9c0,.23.06.31.3.33,1.46.13,2-.24,2.22-1.68A2.11,2.11,0,0,1,146,53v4.16l-.13,0c0-.22-.09-.44-.15-.66a1.81,1.81,0,0,0-2.18-1.36c-.17,0-.21.11-.21.26a25.21,25.21,0,0,0,.07,3,1.8,1.8,0,0,0,1.86,1.79c1.7.14,3.21-.21,3.7-2.41,0-.11,0-.27.2-.31v1.94c0,1,0,1-1.06,1h-7.42A1.13,1.13,0,0,1,140.07,60.44Z"></path><path class="cls-6" d="M208.86,50.12v3.05c-.25-.21-.24-.47-.31-.67a4.69,4.69,0,0,0-.86-1.64,1.89,1.89,0,0,0-2.73-.25,1.81,1.81,0,0,0,.17,2.75,7.64,7.64,0,0,0,1.76,1,8.21,8.21,0,0,1,1.38.79,3.13,3.13,0,0,1-1.76,5.61,4.68,4.68,0,0,1-2.25-.38c-.49-.23-.94-.42-1.36.2V57.28c.29.27.28.57.38.81a4.82,4.82,0,0,0,.95,1.66,2.13,2.13,0,0,0,3,.21,2.31,2.31,0,0,0-.06-3.22,8.27,8.27,0,0,0-1.9-1.18c-.26-.14-.52-.27-.77-.43a2.66,2.66,0,0,1-1.07-3.48A2.83,2.83,0,0,1,206.85,50a7,7,0,0,1,.87.32C208.13,50.49,208.52,50.61,208.86,50.12Z"></path><path class="cls-6" d="M176.65,53a.49.49,0,0,0-.09-.1c-.46-2.34-2-2.48-4-2.52-.24,0-.26.12-.26.31,0,2.69,0,5.38,0,8.07,0,1,.4,1.35,1.32,1.53.08,0,.19,0,.22.16H169c0-.13.08-.14.15-.15,1-.23,1.39-.63,1.4-1.69,0-2.6,0-5.2,0-7.8,0-.37-.12-.47-.46-.43-.51,0-1,.07-1.53.13a2.33,2.33,0,0,0-2.08,1.83c-.06.2-.13.4-.21.67a.88.88,0,0,1-.12-.68c0-.45.07-.91.09-1.36,0-.84,0-.84.84-.84,3,0,5.9,0,8.84,0,.56,0,.69.17.68.66C176.64,51.51,176.65,52.23,176.65,53Z"></path><path class="cls-6" d="M180.52,50.19h4.8l.07.11-.15,0c-1.21.33-1.4.56-1.43,1.82q-.09,3.27,0,6.54a1.38,1.38,0,0,0,1.31,1.59c.08,0,.19,0,.21.17h-4.79c0-.25.24-.15.37-.18a1.28,1.28,0,0,0,1.14-1.22c.15-1.41,0-2.82.06-4.23a25.36,25.36,0,0,0,0-3c-.09-1-.38-1.27-1.33-1.45C180.66,50.35,180.55,50.36,180.52,50.19Z"></path><path class="cls-8" d="M156.34,52.81v-2c0-.17-.06-.35.24-.4a2.56,2.56,0,0,1,2.65,1.16,2.71,2.71,0,0,1-.36,3.07c-.65.72-1.51.63-2.34.67-.25,0-.19-.23-.19-.38Z"></path><path class="cls-8" d="M101.65,52.84V50.76c0-.18,0-.37.26-.37,1.41,0,2.14.21,2.67,1.28a2.63,2.63,0,0,1-.55,3.07c-.63.6-1.42.48-2.17.55-.26,0-.2-.21-.21-.36Z"></path><path class="cls-8" d="M121.47,55.43a5.77,5.77,0,0,1-1.35,4,3.08,3.08,0,0,1-4.76,0A5.87,5.87,0,0,1,114,55a7.36,7.36,0,0,1,1-3.28,3.19,3.19,0,0,1,5.47,0A7.34,7.34,0,0,1,121.47,55.43Z"></path><path class="cls-8" d="M89.33,52.73c0-.66,0-1.32,0-2,0-.29.09-.39.37-.37s.4,0,.6,0a2.13,2.13,0,0,1,2.2,1.39,2.57,2.57,0,0,1-.58,2.87,3.22,3.22,0,0,1-2.45.47c-.21,0-.13-.24-.13-.37C89.33,54.08,89.33,53.4,89.33,52.73Z"></path><path class="cls-8" d="M131,52.74v-2c0-.22,0-.34.29-.32s.7,0,1,0a2.29,2.29,0,0,1,2,2.44,2.15,2.15,0,0,1-2,2.28c-1.35.11-1.35.11-1.35-1.22Z"></path></g></g></svg>