<svg version="1.2" xmlns="http://www.w3.org/2000/svg" viewBox="0 0 1620 840" width="1620" height="840">
	<title>Bitmap (18)-svg</title>
	<style>
		.s0 { fill: #000000 } 
	</style>
	<g id="#000000ff">
		<path id="Layer" fill-rule="evenodd" class="s0" d="m970 0h149.4q-138.4 181.3-276.7 362.6c62.3 81.7 124.7 163.3 186.9 245-49.9-0.2-99.8 0-149.6-0.1-37.5-49-74.8-98.1-112.3-147-36.4 48.1-73.1 95.9-109.6 143.9-2.2 4.1-6.9 3.1-10.7 3.2-47.2-0.2-94.3 0-141.4-0.1 119.5-156.1 238.5-312.5 357.8-468.7 35.5-46.2 70.5-92.8 106.2-138.8zm-753.9 109.6c42.1-6.7 86.1-6 126.9 7.2 42.4 13.2 80.2 40.7 105.4 77.3 32.4 46.7 46.6 103.9 48.1 160.1 1.3 17.1 0.5 34.3 0.7 51.4-124.6 0.3-249.2 0.1-373.8 0.2 3.1 28 13.5 56 33.5 76.4 23.8 24.9 58.1 38.6 92.3 39.3 27.6 0.9 56.1-3.6 80.3-17.5 21.8-12.7 41.1-29.5 57.1-48.9 29.2 22.2 58.5 44.3 87.8 66.4-6.2 9-14.1 16.8-21.8 24.6-19.6 20.1-42.7 36.9-68.2 48.7-65 29.7-141.1 32.7-208.9 11-48.4-15.2-92.6-44.6-123.3-85.2-21.8-28.7-37.6-62.1-45.4-97.4-7.4-35.3-7.9-72-2.5-107.7 8.9-54.6 36.6-105.9 77.5-143.1 37.3-33.6 85-54.5 134.3-62.8zm-49.9 116.3c-24.9 22.3-38.7 54.9-42.7 87.7 83.6-0.1 167.2 0 250.8-0.1-0.5-13.6-2.2-27.1-6.2-40.2-6.8-23.7-22.7-44.6-43.8-57.4-22.8-14-50.2-18.8-76.7-18.1-29.2-0.4-59.4 8.2-81.4 28.1zm1112.1-99.7c39.8-18.2 84.8-23.9 128.1-19.2 51.8 4.3 101.7 27 139.1 63 39.4 37.9 62.7 90.3 70.3 143.9 8.7 59.1 2 121.3-24.6 175.2-21.4 44.6-57 82.8-101.4 105.3-23.7 12.5-49.7 20.3-76.2 23.7-32.9 3.5-66.8 2.2-98.6-7.3-35.2-9.9-67.9-29.3-92-56.8-3-3.4-5.4-7.5-9.7-9.2-0.4 98.4-0.1 196.8-0.2 295.1-40.9 0-81.9 0-122.8 0 0-240.8-0.1-481.6 0-722.4 38.9-0.1 77.9 0 116.8 0 0.3 24.9-0.3 49.8 0.3 74.7 4.9-6.4 8.8-13.5 13.8-19.8 14.8-19.8 34.6-35.9 57.1-46.2zm54 90.9c-39.1 4.7-75.4 27.1-97.5 59.5-32 47.1-34 112.1-6.5 161.7 14.9 26.9 39.3 48.1 67.6 60.2 30 12.5 64.2 13.8 95.7 6.2 28.8-7.7 54.9-24.9 73.5-48.2 35.5-44.8 40.8-110 16.5-161.2-12.9-27.5-35.3-50.1-62.3-63.9-26.4-14-57.5-17.9-87-14.3zm-826.2-99.6c49.8-0.1 99.6 0 149.4-0.1 25.7 33.4 50.9 67.1 76.7 100.4-25 32.7-49.8 65.6-74.9 98.2-50.4-66.2-100.9-132.2-151.2-198.5z"/>
	</g>
</svg>